<svg xmlns="http://www.w3.org/2000/svg" xmlns:xlink="http://www.w3.org/1999/xlink" width="500" zoomAndPan="magnify" viewBox="0 0 375 374.999991" height="500" preserveAspectRatio="xMidYMid meet" version="1.2"><defs/><g id="6fbe2e9fca"><rect x="0" width="375" y="0" height="374.999991" style="fill:#ffffff;fill-opacity:1;stroke:none;"/><rect x="0" width="375" y="0" height="374.999991" style="fill:#ffffff;fill-opacity:1;stroke:none;"/><g style="fill:#000000;fill-opacity:1;"><g transform="translate(24.309048, 207.905015)"><path style="stroke:none" d="M 30.171875 -7.5 L 14.328125 -7.5 L 11.78125 0 L 0.96875 0 L 16.328125 -42.4375 L 28.296875 -42.4375 L 43.640625 0 L 32.703125 0 Z M 27.5 -15.46875 L 22.25 -31.015625 L 17.046875 -15.46875 Z M 27.5 -15.46875 "/></g></g><g style="fill:#000000;fill-opacity:1;"><g transform="translate(68.863164, 207.905015)"><path style="stroke:none" d="M 14.078125 -42.4375 L 14.078125 0 L 3.75 0 L 3.75 -42.4375 Z M 14.078125 -42.4375 "/></g></g><g style="fill:#000000;fill-opacity:1;"><g transform="translate(86.696894, 207.905015)"><path style="stroke:none" d="M 43.59375 -42.4375 L 28.53125 0 L 15.59375 0 L 0.546875 -42.4375 L 11.546875 -42.4375 L 22.0625 -10.390625 L 32.640625 -42.4375 Z M 43.59375 -42.4375 "/></g></g><g style="fill:#000000;fill-opacity:1;"><g transform="translate(130.827843, 207.905015)"><path style="stroke:none" d="M 14.078125 -42.4375 L 14.078125 0 L 3.75 0 L 3.75 -42.4375 Z M 14.078125 -42.4375 "/></g></g><g style="fill:#000000;fill-opacity:1;"><g transform="translate(148.661573, 207.905015)"><path style="stroke:none" d="M 25.390625 0 L 16.5625 -16.015625 L 14.078125 -16.015625 L 14.078125 0 L 3.75 0 L 3.75 -42.4375 L 21.09375 -42.4375 C 24.4375 -42.4375 27.285156 -41.851562 29.640625 -40.6875 C 32.003906 -39.519531 33.769531 -37.914062 34.9375 -35.875 C 36.101562 -33.84375 36.6875 -31.578125 36.6875 -29.078125 C 36.6875 -26.253906 35.890625 -23.734375 34.296875 -21.515625 C 32.710938 -19.304688 30.367188 -17.738281 27.265625 -16.8125 L 37.0625 0 Z M 14.078125 -23.328125 L 20.5 -23.328125 C 22.382812 -23.328125 23.800781 -23.789062 24.75 -24.71875 C 25.695312 -25.644531 26.171875 -26.957031 26.171875 -28.65625 C 26.171875 -30.269531 25.695312 -31.539062 24.75 -32.46875 C 23.800781 -33.394531 22.382812 -33.859375 20.5 -33.859375 L 14.078125 -33.859375 Z M 14.078125 -23.328125 "/></g></g><g style="fill:#000000;fill-opacity:1;"><g transform="translate(188.077155, 207.905015)"><path style="stroke:none" d="M 34.28125 -42.4375 L 34.28125 -34.15625 L 23.03125 -34.15625 L 23.03125 0 L 12.6875 0 L 12.6875 -34.15625 L 1.453125 -34.15625 L 1.453125 -42.4375 Z M 34.28125 -42.4375 "/></g></g><g style="fill:#000000;fill-opacity:1;"><g transform="translate(223.805088, 207.905015)"><path style="stroke:none" d="M 25.390625 0 L 16.5625 -16.015625 L 14.078125 -16.015625 L 14.078125 0 L 3.75 0 L 3.75 -42.4375 L 21.09375 -42.4375 C 24.4375 -42.4375 27.285156 -41.851562 29.640625 -40.6875 C 32.003906 -39.519531 33.769531 -37.914062 34.9375 -35.875 C 36.101562 -33.84375 36.6875 -31.578125 36.6875 -29.078125 C 36.6875 -26.253906 35.890625 -23.734375 34.296875 -21.515625 C 32.710938 -19.304688 30.367188 -17.738281 27.265625 -16.8125 L 37.0625 0 Z M 14.078125 -23.328125 L 20.5 -23.328125 C 22.382812 -23.328125 23.800781 -23.789062 24.75 -24.71875 C 25.695312 -25.644531 26.171875 -26.957031 26.171875 -28.65625 C 26.171875 -30.269531 25.695312 -31.539062 24.75 -32.46875 C 23.800781 -33.394531 22.382812 -33.859375 20.5 -33.859375 L 14.078125 -33.859375 Z M 14.078125 -23.328125 "/></g></g><g style="fill:#000000;fill-opacity:1;"><g transform="translate(263.220669, 207.905015)"><path style="stroke:none" d="M 14.078125 -42.4375 L 14.078125 0 L 3.75 0 L 3.75 -42.4375 Z M 14.078125 -42.4375 "/></g></g><g style="fill:#000000;fill-opacity:1;"><g transform="translate(281.0544, 207.905015)"><path style="stroke:none" d="M 29.75 0 L 21.09375 -13 L 13.484375 0 L 1.75 0 L 15.359375 -21.578125 L 1.453125 -42.4375 L 13.484375 -42.4375 L 22 -29.625 L 29.5 -42.4375 L 41.234375 -42.4375 L 27.75 -21.03125 L 41.765625 0 Z M 29.75 0 "/></g></g><path style=" stroke:none;fill-rule:nonzero;fill:#2f5f98;fill-opacity:1;" d="M 334.660156 151.601562 C 335.75 151.601562 336.816406 151.769531 337.855469 152.109375 C 338.894531 152.445312 339.855469 152.9375 340.742188 153.578125 C 341.625 154.222656 342.386719 154.984375 343.03125 155.867188 C 343.671875 156.753906 344.164062 157.714844 344.5 158.753906 L 339.578125 160.351562 C 339.410156 159.832031 339.164062 159.351562 338.84375 158.910156 C 338.523438 158.46875 338.140625 158.085938 337.699219 157.765625 C 337.257812 157.445312 336.777344 157.199219 336.257812 157.03125 C 335.738281 156.859375 335.203125 156.777344 334.660156 156.777344 Z M 334.660156 151.601562 "/><path style=" stroke:none;fill-rule:nonzero;fill:#31356e;fill-opacity:1;" d="M 344.5 158.753906 C 344.839844 159.792969 345.007812 160.859375 345.007812 161.953125 C 345.007812 163.042969 344.839844 164.109375 344.5 165.148438 C 344.164062 166.1875 343.671875 167.152344 343.03125 168.035156 C 342.386719 168.917969 341.625 169.683594 340.742188 170.324219 L 337.699219 166.136719 C 338.140625 165.816406 338.523438 165.433594 338.84375 164.992188 C 339.164062 164.550781 339.410156 164.070312 339.578125 163.550781 C 339.75 163.03125 339.832031 162.496094 339.832031 161.953125 C 339.832031 161.40625 339.75 160.871094 339.578125 160.351562 Z M 344.5 158.753906 "/><path style=" stroke:none;fill-rule:nonzero;fill:#2d8bba;fill-opacity:1;" d="M 340.742188 170.324219 C 339.855469 170.964844 338.894531 171.457031 337.855469 171.792969 C 336.816406 172.132812 335.75 172.300781 334.660156 172.300781 C 333.566406 172.300781 332.5 172.132812 331.460938 171.792969 C 330.421875 171.457031 329.460938 170.964844 328.574219 170.324219 L 331.617188 166.136719 C 332.058594 166.457031 332.539062 166.703125 333.058594 166.871094 C 333.578125 167.042969 334.113281 167.125 334.660156 167.125 C 335.203125 167.125 335.738281 167.042969 336.257812 166.871094 C 336.777344 166.703125 337.257812 166.457031 337.699219 166.136719 Z M 340.742188 170.324219 "/><path style=" stroke:none;fill-rule:nonzero;fill:#2f5f98;fill-opacity:1;" d="M 328.574219 170.324219 C 327.691406 169.683594 326.929688 168.917969 326.285156 168.035156 C 325.644531 167.152344 325.152344 166.1875 324.816406 165.148438 C 324.476562 164.109375 324.308594 163.042969 324.308594 161.953125 C 324.308594 160.859375 324.476562 159.792969 324.816406 158.753906 L 329.738281 160.351562 C 329.566406 160.871094 329.484375 161.40625 329.484375 161.953125 C 329.484375 162.496094 329.566406 163.03125 329.738281 163.550781 C 329.90625 164.070312 330.152344 164.550781 330.472656 164.992188 C 330.792969 165.433594 331.175781 165.816406 331.617188 166.136719 Z M 328.574219 170.324219 "/><path style=" stroke:none;fill-rule:nonzero;fill:#31356e;fill-opacity:1;" d="M 324.816406 158.753906 C 325.152344 157.714844 325.644531 156.753906 326.285156 155.867188 C 326.925781 154.984375 327.691406 154.222656 328.574219 153.578125 C 329.457031 152.9375 330.421875 152.445312 331.460938 152.109375 C 332.5 151.769531 333.566406 151.601562 334.65625 151.601562 L 334.65625 156.777344 C 334.113281 156.777344 333.578125 156.863281 333.058594 157.03125 C 332.539062 157.199219 332.058594 157.445312 331.617188 157.765625 C 331.175781 158.085938 330.792969 158.46875 330.472656 158.910156 C 330.152344 159.351562 329.90625 159.832031 329.738281 160.351562 Z M 324.816406 158.753906 "/><g style="fill:#000000;fill-opacity:1;"><g transform="translate(212.512154, 231.647723)"><path style="stroke:none" d="M 14.171875 -17.546875 L 14.171875 -14.125 L 9.53125 -14.125 L 9.53125 0 L 5.25 0 L 5.25 -14.125 L 0.59375 -14.125 L 0.59375 -17.546875 Z M 14.171875 -17.546875 "/></g></g><g style="fill:#000000;fill-opacity:1;"><g transform="translate(227.284816, 231.647723)"><path style="stroke:none" d="M 10.5 0 L 6.84375 -6.625 L 5.828125 -6.625 L 5.828125 0 L 1.546875 0 L 1.546875 -17.546875 L 8.71875 -17.546875 C 10.101562 -17.546875 11.28125 -17.300781 12.25 -16.8125 C 13.226562 -16.332031 13.957031 -15.671875 14.4375 -14.828125 C 14.925781 -13.992188 15.171875 -13.0625 15.171875 -12.03125 C 15.171875 -10.863281 14.84375 -9.820312 14.1875 -8.90625 C 13.53125 -7.988281 12.5625 -7.335938 11.28125 -6.953125 L 15.328125 0 Z M 5.828125 -9.65625 L 8.46875 -9.65625 C 9.257812 -9.65625 9.847656 -9.84375 10.234375 -10.21875 C 10.628906 -10.601562 10.828125 -11.144531 10.828125 -11.84375 C 10.828125 -12.507812 10.628906 -13.035156 10.234375 -13.421875 C 9.847656 -13.804688 9.257812 -14 8.46875 -14 L 5.828125 -14 Z M 5.828125 -9.65625 "/></g></g><g style="fill:#000000;fill-opacity:1;"><g transform="translate(243.582232, 231.647723)"><path style="stroke:none" d="M 5.828125 -17.546875 L 5.828125 0 L 1.546875 0 L 1.546875 -17.546875 Z M 5.828125 -17.546875 "/></g></g><g style="fill:#000000;fill-opacity:1;"><g transform="translate(250.95606, 231.647723)"><path style="stroke:none" d="M 12.296875 0 L 8.71875 -5.375 L 5.578125 0 L 0.71875 0 L 6.34375 -8.921875 L 0.59375 -17.546875 L 5.578125 -17.546875 L 9.09375 -12.25 L 12.203125 -17.546875 L 17.046875 -17.546875 L 11.46875 -8.703125 L 17.28125 0 Z M 12.296875 0 "/></g></g><g style="fill:#000000;fill-opacity:1;"><g transform="translate(268.828228, 231.647723)"><path style="stroke:none" d="M 16.75 -17.546875 L 16.75 0 L 12.46875 0 L 12.46875 -7.21875 L 5.828125 -7.21875 L 5.828125 0 L 1.546875 0 L 1.546875 -17.546875 L 5.828125 -17.546875 L 5.828125 -10.671875 L 12.46875 -10.671875 L 12.46875 -17.546875 Z M 16.75 -17.546875 "/></g></g><g style="fill:#000000;fill-opacity:1;"><g transform="translate(287.100333, 231.647723)"><path style="stroke:none" d="M 5.828125 -17.546875 L 5.828125 0 L 1.546875 0 L 1.546875 -17.546875 Z M 5.828125 -17.546875 "/></g></g><g style="fill:#000000;fill-opacity:1;"><g transform="translate(294.474162, 231.647723)"><path style="stroke:none" d="M 10.5 0 L 6.84375 -6.625 L 5.828125 -6.625 L 5.828125 0 L 1.546875 0 L 1.546875 -17.546875 L 8.71875 -17.546875 C 10.101562 -17.546875 11.28125 -17.300781 12.25 -16.8125 C 13.226562 -16.332031 13.957031 -15.671875 14.4375 -14.828125 C 14.925781 -13.992188 15.171875 -13.0625 15.171875 -12.03125 C 15.171875 -10.863281 14.84375 -9.820312 14.1875 -8.90625 C 13.53125 -7.988281 12.5625 -7.335938 11.28125 -6.953125 L 15.328125 0 Z M 5.828125 -9.65625 L 8.46875 -9.65625 C 9.257812 -9.65625 9.847656 -9.84375 10.234375 -10.21875 C 10.628906 -10.601562 10.828125 -11.144531 10.828125 -11.84375 C 10.828125 -12.507812 10.628906 -13.035156 10.234375 -13.421875 C 9.847656 -13.804688 9.257812 -14 8.46875 -14 L 5.828125 -14 Z M 5.828125 -9.65625 "/></g></g><g style="fill:#000000;fill-opacity:1;"><g transform="translate(310.771577, 231.647723)"><path style="stroke:none" d="M 5.828125 -14.125 L 5.828125 -10.578125 L 11.546875 -10.578125 L 11.546875 -7.28125 L 5.828125 -7.28125 L 5.828125 -3.421875 L 12.296875 -3.421875 L 12.296875 0 L 1.546875 0 L 1.546875 -17.546875 L 12.296875 -17.546875 L 12.296875 -14.125 Z M 5.828125 -14.125 "/></g></g></g></svg>